<svg xmlns="http://www.w3.org/2000/svg" xmlns:xlink="http://www.w3.org/1999/xlink" id="Layer_1" x="0px" y="0px" viewBox="0 0 300 144.9" style="enable-background:new 0 0 300 144.9;" xml:space="preserve"><style type="text/css">	.st0{clip-path:url(#SVGID_00000098189099402016041600000010080230716673922718_);fill:#323F49;}	.st1{clip-path:url(#SVGID_00000005952689473575536740000008720450282266968458_);}	.st2{clip-path:url(#SVGID_00000053534646788872187740000002293791193271629215_);fill:#FFFFFF;}</style><g>	<g>		<defs>			<rect id="SVGID_1_" width="300" height="144.9"></rect>		</defs>		<clipPath id="SVGID_00000084531131712788318130000006034803292845579659_">			<use xlink:href="#SVGID_1_" style="overflow:visible;"></use>		</clipPath>		<path style="clip-path:url(#SVGID_00000084531131712788318130000006034803292845579659_);fill:#323F49;" d="M0,0v131.1   c151,31,300,0,300,0V0H0z"></path>	</g></g><g>	<g>		<defs>			<rect id="SVGID_00000072254101878735693410000012367429870388839811_" x="48.8" y="36.2" width="202.3" height="72.4"></rect>		</defs>		<clipPath id="SVGID_00000115504793015303552140000018135926649104541885_">			<use xlink:href="#SVGID_00000072254101878735693410000012367429870388839811_" style="overflow:visible;"></use>		</clipPath>		<g style="clip-path:url(#SVGID_00000115504793015303552140000018135926649104541885_);">			<defs>				<rect id="SVGID_00000161629237152600033010000014429593929246605721_" x="29.7" y="20.7" width="240.6" height="102.8"></rect>			</defs>			<clipPath id="SVGID_00000155855093186616909950000012383969258264968834_">				<use xlink:href="#SVGID_00000161629237152600033010000014429593929246605721_" style="overflow:visible;"></use>			</clipPath>			<path style="clip-path:url(#SVGID_00000155855093186616909950000012383969258264968834_);fill:#FFFFFF;" d="M66.8,107.3l1.3-1.7    c0.7,0.6,1.6,1,2.5,1c0.6,0,1-0.3,1-0.7v0c0-0.4-0.3-0.6-1.4-1c-1.7-0.6-3-1.2-3-2.9v0c0-1.7,1.3-2.8,3.3-2.8    c1.2,0,2.3,0.3,3.3,1.1l-1.2,1.8c-0.6-0.5-1.4-0.8-2.1-0.8c-0.5,0-0.8,0.3-0.8,0.6v0c0,0.4,0.3,0.6,1.5,1.1    c1.7,0.6,2.8,1.3,2.8,2.8v0c0,1.8-1.4,2.9-3.4,2.9C69.2,108.7,67.9,108.2,66.8,107.3"></path>			<polygon style="clip-path:url(#SVGID_00000155855093186616909950000012383969258264968834_);fill:#FFFFFF;" points="77.4,99.3     83.7,99.3 83.7,101.4 79.7,101.4 79.7,102.9 83.3,102.9 83.3,104.9 79.7,104.9 79.7,106.4 83.8,106.4 83.8,108.5 77.4,108.5        "></polygon>			<path style="clip-path:url(#SVGID_00000155855093186616909950000012383969258264968834_);fill:#FFFFFF;" d="M90,99.3h2.4l3.2,9.3    h-2.5l-0.5-1.7h-2.9l-0.5,1.7h-2.4L90,99.3z M92,105l-0.9-2.7l-0.9,2.7H92z"></path>			<path style="clip-path:url(#SVGID_00000155855093186616909950000012383969258264968834_);fill:#FFFFFF;" d="M98.9,99.3h3.6    c1.2,0,2.2,0.3,2.8,0.9c0.5,0.5,0.8,1.2,0.8,2.2v0.1c0,1.4-0.7,2.2-1.6,2.7l1.9,3.3h-2.7l-1.6-2.9h-0.8v2.9h-2.4V99.3z     M102.4,103.8c0.8,0,1.3-0.5,1.3-1.2v0c0-0.8-0.5-1.2-1.3-1.2h-1.2v2.4H102.4z"></path>			<path style="clip-path:url(#SVGID_00000155855093186616909950000012383969258264968834_);fill:#FFFFFF;" d="M109.3,104v-0.2    c0-2.8,1.9-4.7,4.3-4.7c1.4,0,2.4,0.6,3.2,1.4l-1.5,1.6c-0.4-0.5-0.9-0.9-1.6-0.9c-1.1,0-1.9,1-1.9,2.5v0.1    c0,1.6,0.8,2.6,1.9,2.6c0.8,0,1.3-0.4,1.7-0.9l1.5,1.5c-0.7,0.9-1.8,1.6-3.3,1.6C111.2,108.7,109.3,106.9,109.3,104"></path>			<polygon style="clip-path:url(#SVGID_00000155855093186616909950000012383969258264968834_);fill:#FFFFFF;" points="120.2,99.3     122.6,99.3 122.6,102.8 125.2,102.8 125.2,99.3 127.6,99.3 127.6,108.5 125.2,108.5 125.2,105 122.6,105 122.6,108.5     120.2,108.5    "></polygon>			<polygon style="clip-path:url(#SVGID_00000155855093186616909950000012383969258264968834_);fill:#FFFFFF;" points="139.1,104.9     137,104.9 137,102.9 139.1,102.9 139.1,100.8 141.2,100.8 141.2,102.9 143.2,102.9 143.2,104.9 141.2,104.9 141.2,107 139.1,107        "></polygon>			<path style="clip-path:url(#SVGID_00000155855093186616909950000012383969258264968834_);fill:#FFFFFF;" d="M152,107.3l1.3-1.7    c0.7,0.6,1.6,1,2.5,1c0.6,0,1-0.3,1-0.7v0c0-0.4-0.3-0.6-1.4-1c-1.7-0.6-3-1.2-3-2.9v0c0-1.7,1.3-2.8,3.3-2.8    c1.2,0,2.3,0.3,3.3,1.1l-1.2,1.8c-0.6-0.5-1.4-0.8-2.1-0.8c-0.5,0-0.8,0.3-0.8,0.6v0c0,0.4,0.3,0.6,1.5,1.1    c1.7,0.6,2.8,1.3,2.8,2.8v0c0,1.8-1.4,2.9-3.4,2.9C154.4,108.7,153.1,108.2,152,107.3"></path>			<polygon style="clip-path:url(#SVGID_00000155855093186616909950000012383969258264968834_);fill:#FFFFFF;" points="164.2,101.4     161.9,101.4 161.9,99.3 168.9,99.3 168.9,101.4 166.6,101.4 166.6,108.5 164.2,108.5    "></polygon>			<path style="clip-path:url(#SVGID_00000155855093186616909950000012383969258264968834_);fill:#FFFFFF;" d="M172.3,99.3h3.6    c1.2,0,2.2,0.3,2.8,0.9c0.5,0.5,0.8,1.2,0.8,2.2v0.1c0,1.4-0.7,2.2-1.6,2.7l1.9,3.3h-2.7l-1.6-2.9h-0.8v2.9h-2.4V99.3z     M175.8,103.8c0.8,0,1.3-0.5,1.3-1.2v0c0-0.8-0.5-1.2-1.3-1.2h-1.2v2.4H175.8z"></path>			<path style="clip-path:url(#SVGID_00000155855093186616909950000012383969258264968834_);fill:#FFFFFF;" d="M185.5,99.3h2.4    l3.2,9.3h-2.5l-0.5-1.7h-2.9l-0.5,1.7h-2.4L185.5,99.3z M187.5,105l-0.9-2.7l-0.9,2.7H187.5z"></path>			<polygon style="clip-path:url(#SVGID_00000155855093186616909950000012383969258264968834_);fill:#FFFFFF;" points="195.3,101.4     193,101.4 193,99.3 199.9,99.3 199.9,101.4 197.6,101.4 197.6,108.5 195.3,108.5    "></polygon>			<polygon style="clip-path:url(#SVGID_00000155855093186616909950000012383969258264968834_);fill:#FFFFFF;" points="203.3,99.3     209.7,99.3 209.7,101.4 205.7,101.4 205.7,102.9 209.3,102.9 209.3,104.9 205.7,104.9 205.7,106.4 209.7,106.4 209.7,108.5     203.3,108.5    "></polygon>			<path style="clip-path:url(#SVGID_00000155855093186616909950000012383969258264968834_);fill:#FFFFFF;" d="M213,104v-0.2    c0-2.8,1.9-4.7,4.4-4.7c1.3,0,2.3,0.4,3.2,1.1l-1.3,1.8c-0.5-0.4-1-0.8-1.8-0.8c-1.2,0-2.1,1-2.1,2.6v0.1c0,1.7,0.9,2.6,2.1,2.6    c0.5,0,0.8-0.1,1.1-0.3V105h-1.5v-1.8h3.7v4.4c-0.9,0.6-2,1.1-3.4,1.1C214.9,108.7,213,106.9,213,104"></path>			<polygon style="clip-path:url(#SVGID_00000155855093186616909950000012383969258264968834_);fill:#FFFFFF;" points="226.4,105.1     223.5,99.3 226.1,99.3 227.6,102.6 229.2,99.3 231.7,99.3 228.8,105 228.8,108.5 226.4,108.5    "></polygon>			<path style="clip-path:url(#SVGID_00000155855093186616909950000012383969258264968834_);fill:#FFFFFF;" d="M65.4,38    c-1.1,0.4-2.2,0.9-3.2,1.5L52,49.6c-0.6,1-1,2.1-1.5,3.2L65.4,38z"></path>			<path style="clip-path:url(#SVGID_00000155855093186616909950000012383969258264968834_);fill:#FFFFFF;" d="M71.5,36.5    c-0.7,0.1-1.4,0.2-2.1,0.3L49.4,56.9c-0.1,0.7-0.2,1.4-0.3,2.1L71.5,36.5z"></path>			<path style="clip-path:url(#SVGID_00000155855093186616909950000012383969258264968834_);fill:#FFFFFF;" d="M75.1,36.2    c-0.2,0-0.3,0-0.5,0L48.8,62c0,0,0,0.1,0,0.1v0.1c0,0.5,0,1,0.1,1.4l27.5-27.5C76,36.3,75.5,36.2,75.1,36.2"></path>			<path style="clip-path:url(#SVGID_00000155855093186616909950000012383969258264968834_);fill:#FFFFFF;" d="M61.6,55.7    c1.6-3.9,4.6-6.9,8.3-8.3l10.7-10.7c-0.5-0.1-1-0.1-1.6-0.2L49.1,66.4c0.1,0.5,0.1,1,0.2,1.5L61.6,55.7z"></path>			<path style="clip-path:url(#SVGID_00000155855093186616909950000012383969258264968834_);fill:#FFFFFF;" d="M60.4,61.5    c0-0.7,0.1-1.3,0.2-1.9L49.9,70.2c0.1,0.5,0.3,0.9,0.5,1.3L60.4,61.5z"></path>			<path style="clip-path:url(#SVGID_00000155855093186616909950000012383969258264968834_);fill:#FFFFFF;" d="M73.7,46.5    c0.4,0,0.7-0.1,1.1-0.1c0.3,0,0.5,0,0.7,0l9-9c-0.5-0.1-0.9-0.2-1.4-0.4L73.7,46.5z"></path>			<path style="clip-path:url(#SVGID_00000155855093186616909950000012383969258264968834_);fill:#FFFFFF;" d="M60.7,65.8    c-0.1-0.5-0.2-1-0.2-1.5l-9.3,9.3c0.2,0.4,0.4,0.8,0.6,1.2L60.7,65.8z"></path>			<path style="clip-path:url(#SVGID_00000155855093186616909950000012383969258264968834_);fill:#FFFFFF;" d="M78.1,46.7    c0.5,0.1,1,0.2,1.5,0.3l8.3-8.3c-0.4-0.2-0.8-0.4-1.2-0.5L78.1,46.7z"></path>			<path style="clip-path:url(#SVGID_00000155855093186616909950000012383969258264968834_);fill:#FFFFFF;" d="M61.8,69.3    c-0.2-0.4-0.4-0.8-0.5-1.3l-8.5,8.5c0.2,0.4,0.5,0.7,0.7,1.1L61.8,69.3z"></path>			<path style="clip-path:url(#SVGID_00000155855093186616909950000012383969258264968834_);fill:#FFFFFF;" d="M81.8,47.7    c0.4,0.2,0.8,0.4,1.2,0.6l7.9-7.9c-0.4-0.2-0.7-0.4-1.1-0.7L81.8,47.7z"></path>			<polygon style="clip-path:url(#SVGID_00000155855093186616909950000012383969258264968834_);fill:#FFFFFF;" points="77.4,58.4     75.7,58.4 74.8,59.2 74.8,61    "></polygon>			<path style="clip-path:url(#SVGID_00000155855093186616909950000012383969258264968834_);fill:#FFFFFF;" d="M63.5,72.3    c-0.3-0.3-0.5-0.7-0.7-1l-8,8c0.3,0.3,0.6,0.6,0.8,0.9L63.5,72.3z"></path>			<path style="clip-path:url(#SVGID_00000155855093186616909950000012383969258264968834_);fill:#FFFFFF;" d="M84.8,49.2    c0.4,0.2,0.7,0.5,1,0.7l7.8-7.8c-0.3-0.3-0.7-0.5-1-0.8L84.8,49.2z"></path>			<polygon style="clip-path:url(#SVGID_00000155855093186616909950000012383969258264968834_);fill:#FFFFFF;" points="74.8,63.9     74.8,65.6 82.1,58.4 80.3,58.4    "></polygon>			<path style="clip-path:url(#SVGID_00000155855093186616909950000012383969258264968834_);fill:#FFFFFF;" d="M65.8,74.7    c-0.3-0.3-0.6-0.6-0.9-0.9l-7.8,7.8c0.3,0.3,0.6,0.6,0.9,0.8L65.8,74.7z"></path>			<path style="clip-path:url(#SVGID_00000155855093186616909950000012383969258264968834_);fill:#FFFFFF;" d="M87.5,51.2    c0.1,0.1,0.3,0.2,0.4,0.3l3.3-4L87.5,51.2z"></path>			<path style="clip-path:url(#SVGID_00000155855093186616909950000012383969258264968834_);fill:#FFFFFF;" d="M68.6,76.5    c-0.4-0.2-0.8-0.4-1.1-0.6l-7.8,7.8c0.4,0.2,0.7,0.5,1.1,0.7L68.6,76.5z"></path>			<polygon style="clip-path:url(#SVGID_00000155855093186616909950000012383969258264968834_);fill:#FFFFFF;" points="75.4,67.9     77.2,67.9 86.7,58.4 84.9,58.4    "></polygon>			<polygon style="clip-path:url(#SVGID_00000155855093186616909950000012383969258264968834_);fill:#FFFFFF;" points="80,67.9     81.8,67.9 91.3,58.4 89.6,58.4    "></polygon>			<path style="clip-path:url(#SVGID_00000155855093186616909950000012383969258264968834_);fill:#FFFFFF;" d="M72,77.7    c-0.5-0.1-0.9-0.2-1.4-0.4l-8,8c0.4,0.2,0.8,0.4,1.2,0.6L72,77.7z"></path>			<polygon style="clip-path:url(#SVGID_00000155855093186616909950000012383969258264968834_);fill:#FFFFFF;" points="84.7,67.9     85.9,67.9 85.9,68.4 96,58.4 94.2,58.4    "></polygon>			<path style="clip-path:url(#SVGID_00000155855093186616909950000012383969258264968834_);fill:#FFFFFF;" d="M76.3,78    c-0.3,0-0.5,0-0.8,0c-0.3,0-0.7,0-1,0l-8.6,8.6c0.4,0.1,0.9,0.3,1.4,0.4L76.3,78z"></path>			<polygon style="clip-path:url(#SVGID_00000155855093186616909950000012383969258264968834_);fill:#FFFFFF;" points="96.6,62.4     96.6,60.6 85.9,71.3 85.9,73.1    "></polygon>			<path style="clip-path:url(#SVGID_00000155855093186616909950000012383969258264968834_);fill:#FFFFFF;" d="M81.9,77.1    c-0.8,0.3-1.6,0.5-2.4,0.6l-9.9,9.9c0.5,0.1,1,0.1,1.6,0.2L81.9,77.1z"></path>			<path style="clip-path:url(#SVGID_00000155855093186616909950000012383969258264968834_);fill:#FFFFFF;" d="M96.6,65.2L73.8,88    c0.5,0,0.9,0.1,1.4,0.1c0.1,0,0.2,0,0.3,0L96.6,67V65.2z"></path>			<path style="clip-path:url(#SVGID_00000155855093186616909950000012383969258264968834_);fill:#FFFFFF;" d="M96.6,71.7v-1.8    l-18,18c0.7-0.1,1.4-0.2,2-0.3L96.6,71.7z"></path>			<path style="clip-path:url(#SVGID_00000155855093186616909950000012383969258264968834_);fill:#FFFFFF;" d="M96.6,76.3v-1.8    L84.3,86.8c0.9-0.3,1.8-0.6,2.7-0.9L96.6,76.3z"></path>			<path style="clip-path:url(#SVGID_00000155855093186616909950000012383969258264968834_);fill:#FFFFFF;" d="M96.6,79.1L92.8,83    c1.4-0.9,2.6-1.8,3.8-2.8V79.1z"></path>			<polygon style="clip-path:url(#SVGID_00000155855093186616909950000012383969258264968834_);fill:#FFFFFF;" points="107.2,37.1     107.2,37.9 108,37.1    "></polygon>			<polygon style="clip-path:url(#SVGID_00000155855093186616909950000012383969258264968834_);fill:#FFFFFF;" points="110.8,37.1     107.2,40.8 107.2,42.5 112.6,37.1    "></polygon>			<polygon style="clip-path:url(#SVGID_00000155855093186616909950000012383969258264968834_);fill:#FFFFFF;" points="115.5,37.1     107.2,45.4 107.2,47.2 117.2,37.1    "></polygon>			<polygon style="clip-path:url(#SVGID_00000155855093186616909950000012383969258264968834_);fill:#FFFFFF;" points="120.1,37.1     107.2,50 107.2,51.8 121.9,37.1    "></polygon>			<polygon style="clip-path:url(#SVGID_00000155855093186616909950000012383969258264968834_);fill:#FFFFFF;" points="124.7,37.1     107.2,54.7 107.2,56.4 126.5,37.1    "></polygon>			<polygon style="clip-path:url(#SVGID_00000155855093186616909950000012383969258264968834_);fill:#FFFFFF;" points="118.2,48.3     107.2,59.3 107.2,61.1 118.2,50    "></polygon>			<path style="clip-path:url(#SVGID_00000155855093186616909950000012383969258264968834_);fill:#FFFFFF;" d="M121.2,47.1l9.9-9.9    c-0.3,0-0.7,0-1,0h-0.7l-10,10H121.2z"></path>			<polygon style="clip-path:url(#SVGID_00000155855093186616909950000012383969258264968834_);fill:#FFFFFF;" points="118.2,52.9     107.2,63.9 107.2,65.7 118.2,54.7    "></polygon>			<path style="clip-path:url(#SVGID_00000155855093186616909950000012383969258264968834_);fill:#FFFFFF;" d="M125.8,47.1l9.5-9.5    c-0.5-0.1-1-0.2-1.5-0.2l-9.7,9.7H125.8z"></path>			<path style="clip-path:url(#SVGID_00000155855093186616909950000012383969258264968834_);fill:#FFFFFF;" d="M129.1,47.1    c0.4,0,0.8,0,1.2,0.1l8.5-8.5c-0.4-0.2-0.9-0.3-1.3-0.4l-8.9,8.9H129.1z"></path>			<polygon style="clip-path:url(#SVGID_00000155855093186616909950000012383969258264968834_);fill:#FFFFFF;" points="118.2,57.5     107.2,68.6 107.2,70.3 118.2,59.3    "></polygon>			<path style="clip-path:url(#SVGID_00000155855093186616909950000012383969258264968834_);fill:#FFFFFF;" d="M134.1,48l7.9-7.9    c-0.4-0.2-0.7-0.4-1.1-0.6l-8.1,8.1C133.3,47.7,133.7,47.8,134.1,48"></path>			<polygon style="clip-path:url(#SVGID_00000155855093186616909950000012383969258264968834_);fill:#FFFFFF;" points="118.9,61.5     107.2,73.2 107.2,75 120.7,61.5    "></polygon>			<polygon style="clip-path:url(#SVGID_00000155855093186616909950000012383969258264968834_);fill:#FFFFFF;" points="123.5,61.5     107.2,77.8 107.2,79.6 125.3,61.5    "></polygon>			<path style="clip-path:url(#SVGID_00000155855093186616909950000012383969258264968834_);fill:#FFFFFF;" d="M136.6,50.1l8-8    c-0.3-0.3-0.6-0.6-0.9-0.8l-7.9,7.9C136.1,49.5,136.4,49.8,136.6,50.1"></path>			<path style="clip-path:url(#SVGID_00000155855093186616909950000012383969258264968834_);fill:#FFFFFF;" d="M129.4,61.5h-1.2    l-9.7,9.7h1.8l9.8-9.8C129.8,61.4,129.6,61.5,129.4,61.5"></path>			<polygon style="clip-path:url(#SVGID_00000155855093186616909950000012383969258264968834_);fill:#FFFFFF;" points="107.2,84.2     118.2,73.2 118.2,71.4 107.2,82.5    "></polygon>			<path style="clip-path:url(#SVGID_00000155855093186616909950000012383969258264968834_);fill:#FFFFFF;" d="M137.8,53.6l8.9-8.9    c-0.2-0.4-0.5-0.7-0.7-1.1l-8.4,8.4C137.7,52.6,137.7,53.1,137.8,53.6"></path>			<path style="clip-path:url(#SVGID_00000155855093186616909950000012383969258264968834_);fill:#FFFFFF;" d="M147.6,46.6    l-10.3,10.3c-0.6,1.7-1.9,3.1-3.8,3.8l-10.5,10.5h1.8l23.3-23.3C148,47.5,147.8,47,147.6,46.6"></path>			<polygon style="clip-path:url(#SVGID_00000155855093186616909950000012383969258264968834_);fill:#FFFFFF;" points="107.2,87.2     108.8,87.2 118.2,77.8 118.2,76.1 107.2,87.1    "></polygon>			<path style="clip-path:url(#SVGID_00000155855093186616909950000012383969258264968834_);fill:#FFFFFF;" d="M148.7,50.2    l-21.5,21.5l0.7,1.1l21-21C148.8,51.2,148.8,50.7,148.7,50.2"></path>			<polygon style="clip-path:url(#SVGID_00000155855093186616909950000012383969258264968834_);fill:#FFFFFF;" points="113.4,87.2     118.2,82.5 118.2,80.7 111.7,87.2    "></polygon>			<polygon style="clip-path:url(#SVGID_00000155855093186616909950000012383969258264968834_);fill:#FFFFFF;" points="118.1,87.2     118.2,87.1 118.2,85.3 116.3,87.2    "></polygon>			<path style="clip-path:url(#SVGID_00000155855093186616909950000012383969258264968834_);fill:#FFFFFF;" d="M149,54.6l-19.9,19.9    l0.7,1.1l19-19C148.9,55.9,148.9,55.2,149,54.6"></path>			<polygon style="clip-path:url(#SVGID_00000155855093186616909950000012383969258264968834_);fill:#FFFFFF;" points="138.5,69.7     130.9,77.3 131.6,78.3 139.2,70.7    "></polygon>			<path style="clip-path:url(#SVGID_00000155855093186616909950000012383969258264968834_);fill:#FFFFFF;" d="M144.7,65.3    c1.3-1.4,2.4-3,3.2-4.9l-8.6,8.6c1.9-0.8,3.6-1.9,5.1-3.3L144.7,65.3z"></path>			<polygon style="clip-path:url(#SVGID_00000155855093186616909950000012383969258264968834_);fill:#FFFFFF;" points="140.4,72.4     132.8,80 133.5,81.1 141.1,73.5    "></polygon>			<polygon style="clip-path:url(#SVGID_00000155855093186616909950000012383969258264968834_);fill:#FFFFFF;" points="142.2,75.2     134.6,82.8 135.3,83.9 143,76.2    "></polygon>			<polygon style="clip-path:url(#SVGID_00000155855093186616909950000012383969258264968834_);fill:#FFFFFF;" points="144.1,77.9     136.5,85.6 137.2,86.6 144.8,79    "></polygon>			<polygon style="clip-path:url(#SVGID_00000155855093186616909950000012383969258264968834_);fill:#FFFFFF;" points="146,80.7     139.5,87.2 141.2,87.2 146.7,81.7    "></polygon>			<polygon style="clip-path:url(#SVGID_00000155855093186616909950000012383969258264968834_);fill:#FFFFFF;" points="144.1,87.2     145.9,87.2 148.6,84.5 147.9,83.4    "></polygon>			<polygon style="clip-path:url(#SVGID_00000155855093186616909950000012383969258264968834_);fill:#FFFFFF;" points="149.8,86.2     148.7,87.2 150.5,87.2    "></polygon>			<polygon style="clip-path:url(#SVGID_00000155855093186616909950000012383969258264968834_);fill:#FFFFFF;" points="158.5,37.1     158.5,37.5 158.9,37.1    "></polygon>			<polygon style="clip-path:url(#SVGID_00000155855093186616909950000012383969258264968834_);fill:#FFFFFF;" points="161.8,37.1     158.5,40.4 158.5,42.1 163.6,37.1    "></polygon>			<polygon style="clip-path:url(#SVGID_00000155855093186616909950000012383969258264968834_);fill:#FFFFFF;" points="166.4,37.1     158.5,45 158.5,46.8 168.2,37.1    "></polygon>			<polygon style="clip-path:url(#SVGID_00000155855093186616909950000012383969258264968834_);fill:#FFFFFF;" points="171.1,37.1     158.5,49.6 158.5,51.4 172.8,37.1    "></polygon>			<polygon style="clip-path:url(#SVGID_00000155855093186616909950000012383969258264968834_);fill:#FFFFFF;" points="175.7,37.1     158.5,54.3 158.5,56 177.5,37.1    "></polygon>			<polygon style="clip-path:url(#SVGID_00000155855093186616909950000012383969258264968834_);fill:#FFFFFF;" points="172.3,46.9     182.1,37.1 180.3,37.1 170.5,46.9    "></polygon>			<polygon style="clip-path:url(#SVGID_00000155855093186616909950000012383969258264968834_);fill:#FFFFFF;" points="169.5,47.9     158.5,58.9 158.5,60.7 169.5,49.7    "></polygon>			<polygon style="clip-path:url(#SVGID_00000155855093186616909950000012383969258264968834_);fill:#FFFFFF;" points="169.5,52.6     158.5,63.5 158.5,65.3 169.5,54.3    "></polygon>			<polygon style="clip-path:url(#SVGID_00000155855093186616909950000012383969258264968834_);fill:#FFFFFF;" points="176.9,46.9     186.7,37.1 185,37.1 175.1,46.9    "></polygon>			<polygon style="clip-path:url(#SVGID_00000155855093186616909950000012383969258264968834_);fill:#FFFFFF;" points="181.5,46.9     191.4,37.1 189.6,37.1 179.8,46.9    "></polygon>			<polygon style="clip-path:url(#SVGID_00000155855093186616909950000012383969258264968834_);fill:#FFFFFF;" points="169.6,57.1     158.5,68.1 158.5,69.9 171.4,57.1    "></polygon>			<polygon style="clip-path:url(#SVGID_00000155855093186616909950000012383969258264968834_);fill:#FFFFFF;" points="186.2,46.9     196,37.1 194.2,37.1 184.4,46.9    "></polygon>			<polygon style="clip-path:url(#SVGID_00000155855093186616909950000012383969258264968834_);fill:#FFFFFF;" points="174.2,57.1     158.5,72.8 158.5,74.6 176,57.1    "></polygon>			<polygon style="clip-path:url(#SVGID_00000155855093186616909950000012383969258264968834_);fill:#FFFFFF;" points="196.4,39.6     189,46.9 190.8,46.9 196.4,41.4    "></polygon>			<polygon style="clip-path:url(#SVGID_00000155855093186616909950000012383969258264968834_);fill:#FFFFFF;" points="169.5,66.9     170.8,66.9 180.6,57.1 178.9,57.1 158.5,77.4 158.5,79.2 169.5,68.2    "></polygon>			<polygon style="clip-path:url(#SVGID_00000155855093186616909950000012383969258264968834_);fill:#FFFFFF;" points="173.7,66.9     175.5,66.9 185.3,57.1 183.5,57.1    "></polygon>			<polygon style="clip-path:url(#SVGID_00000155855093186616909950000012383969258264968834_);fill:#FFFFFF;" points="169.5,71.1     158.5,82 158.5,83.8 169.5,72.9    "></polygon>			<polygon style="clip-path:url(#SVGID_00000155855093186616909950000012383969258264968834_);fill:#FFFFFF;" points="196.4,46     196.4,44.2 193.7,46.9 195.4,46.9    "></polygon>			<polygon style="clip-path:url(#SVGID_00000155855093186616909950000012383969258264968834_);fill:#FFFFFF;" points="189.9,57.1     188.1,57.1 178.3,66.9 180.1,66.9    "></polygon>			<polygon style="clip-path:url(#SVGID_00000155855093186616909950000012383969258264968834_);fill:#FFFFFF;" points="169.5,77.4     169.5,75.7 158.5,86.7 158.5,87.2 159.8,87.2 169.6,77.4    "></polygon>			<polygon style="clip-path:url(#SVGID_00000155855093186616909950000012383969258264968834_);fill:#FFFFFF;" points="172.4,77.4     162.6,87.2 164.4,87.2 174.2,77.4    "></polygon>			<polygon style="clip-path:url(#SVGID_00000155855093186616909950000012383969258264968834_);fill:#FFFFFF;" points="193.1,57.1     192.8,57.1 183,66.9 184.7,66.9 193.1,58.5    "></polygon>			<polygon style="clip-path:url(#SVGID_00000155855093186616909950000012383969258264968834_);fill:#FFFFFF;" points="193.1,61.4     187.6,66.9 189.4,66.9 193.1,63.1    "></polygon>			<polygon style="clip-path:url(#SVGID_00000155855093186616909950000012383969258264968834_);fill:#FFFFFF;" points="177.1,77.4     167.3,87.2 169,87.2 178.8,77.4    "></polygon>			<polygon style="clip-path:url(#SVGID_00000155855093186616909950000012383969258264968834_);fill:#FFFFFF;" points="181.7,77.4     171.9,87.2 173.7,87.2 183.5,77.4    "></polygon>			<polygon style="clip-path:url(#SVGID_00000155855093186616909950000012383969258264968834_);fill:#FFFFFF;" points="193.1,66     192.2,66.9 193.1,66.9    "></polygon>			<polygon style="clip-path:url(#SVGID_00000155855093186616909950000012383969258264968834_);fill:#FFFFFF;" points="186.3,77.4     176.5,87.2 178.3,87.2 188.1,77.4    "></polygon>			<polygon style="clip-path:url(#SVGID_00000155855093186616909950000012383969258264968834_);fill:#FFFFFF;" points="191,77.4     181.2,87.2 182.9,87.2 192.7,77.4    "></polygon>			<polygon style="clip-path:url(#SVGID_00000155855093186616909950000012383969258264968834_);fill:#FFFFFF;" points="195.6,77.4     185.8,87.2 187.6,87.2 196.7,78.1 196.7,77.4    "></polygon>			<polygon style="clip-path:url(#SVGID_00000155855093186616909950000012383969258264968834_);fill:#FFFFFF;" points="192.2,87.2     196.7,82.7 196.7,80.9 190.4,87.2    "></polygon>			<polygon style="clip-path:url(#SVGID_00000155855093186616909950000012383969258264968834_);fill:#FFFFFF;" points="196.7,87.2     196.7,85.6 195.1,87.2    "></polygon>			<polygon style="clip-path:url(#SVGID_00000155855093186616909950000012383969258264968834_);fill:#FFFFFF;" points="203.5,37.1     202.3,38.2 203,39.3 205.3,37.1    "></polygon>			<polygon style="clip-path:url(#SVGID_00000155855093186616909950000012383969258264968834_);fill:#FFFFFF;" points="208.1,37.1     204.1,41.1 204.8,42.2 209.9,37.1    "></polygon>			<polygon style="clip-path:url(#SVGID_00000155855093186616909950000012383969258264968834_);fill:#FFFFFF;" points="214.5,37.1     212.7,37.1 205.9,43.9 206.6,45 214.5,37.1    "></polygon>			<polygon style="clip-path:url(#SVGID_00000155855093186616909950000012383969258264968834_);fill:#FFFFFF;" points="215.6,38.9     207.7,46.8 208.4,47.8 216.2,40    "></polygon>			<polygon style="clip-path:url(#SVGID_00000155855093186616909950000012383969258264968834_);fill:#FFFFFF;" points="217.3,41.8     209.5,49.6 210.2,50.7 218,42.9    "></polygon>			<polygon style="clip-path:url(#SVGID_00000155855093186616909950000012383969258264968834_);fill:#FFFFFF;" points="219,44.7     211.3,52.4 212,53.5 219.7,45.8    "></polygon>			<polygon style="clip-path:url(#SVGID_00000155855093186616909950000012383969258264968834_);fill:#FFFFFF;" points="220.8,47.6     213.1,55.3 213.8,56.3 221.4,48.7    "></polygon>			<polygon style="clip-path:url(#SVGID_00000155855093186616909950000012383969258264968834_);fill:#FFFFFF;" points="222.5,50.5     214.9,58.1 215.6,59.2 223.1,51.6    "></polygon>			<polygon style="clip-path:url(#SVGID_00000155855093186616909950000012383969258264968834_);fill:#FFFFFF;" points="224.2,53.4     216.7,60.9 217.4,62 224.9,54.5    "></polygon>			<polygon style="clip-path:url(#SVGID_00000155855093186616909950000012383969258264968834_);fill:#FFFFFF;" points="240.5,37.1     235.7,41.9 233,46.4 242.3,37.1    "></polygon>			<polygon style="clip-path:url(#SVGID_00000155855093186616909950000012383969258264968834_);fill:#FFFFFF;" points="245.2,37.1     228.6,53.7 226.5,57.2 225.9,56.3 218.5,63.8 219.2,64.8 246.9,37.1    "></polygon>			<polygon style="clip-path:url(#SVGID_00000155855093186616909950000012383969258264968834_);fill:#FFFFFF;" points="249.8,37.1     220.3,66.6 220.9,67.5 220.9,67.8 250.5,38.2 251.2,37.1    "></polygon>			<polygon style="clip-path:url(#SVGID_00000155855093186616909950000012383969258264968834_);fill:#FFFFFF;" points="220.9,72.4     242.3,51.1 245.4,46.2 220.9,70.7    "></polygon>			<polygon style="clip-path:url(#SVGID_00000155855093186616909950000012383969258264968834_);fill:#FFFFFF;" points="220.9,77.1     234.1,63.9 237.2,59 220.9,75.3    "></polygon>			<polygon style="clip-path:url(#SVGID_00000155855093186616909950000012383969258264968834_);fill:#FFFFFF;" points="220.9,81.7     231.9,70.7 231.9,68.9 220.9,79.9    "></polygon>			<polygon style="clip-path:url(#SVGID_00000155855093186616909950000012383969258264968834_);fill:#FFFFFF;" points="220.9,86.3     231.9,75.3 231.9,73.5 220.9,84.6    "></polygon>			<polygon style="clip-path:url(#SVGID_00000155855093186616909950000012383969258264968834_);fill:#FFFFFF;" points="224.6,87.2     231.9,79.9 231.9,78.2 222.8,87.2    "></polygon>			<polygon style="clip-path:url(#SVGID_00000155855093186616909950000012383969258264968834_);fill:#FFFFFF;" points="229.3,87.2     231.9,84.6 231.9,82.8 227.5,87.2    "></polygon>		</g>	</g></g></svg>